<!DOCTYPE svg PUBLIC "-//W3C//DTD SVG 1.1//EN" "http://www.w3.org/Graphics/SVG/1.1/DTD/svg11.dtd">
<!-- Uploaded to: SVG Repo, www.svgrepo.com, Transformed by: SVG Repo Mixer Tools -->
<svg height="800px" width="800px" version="1.1" id="Layer_1" xmlns="http://www.w3.org/2000/svg" xmlns:xlink="http://www.w3.org/1999/xlink" viewBox="0 0 512.004 512.004" xml:space="preserve" fill="#000000">
<g id="SVGRepo_bgCarrier" stroke-width="0"/>
<g id="SVGRepo_tracerCarrier" stroke-linecap="round" stroke-linejoin="round"/>
<g id="SVGRepo_iconCarrier"> <g> <path style="fill:#77bb41;" d="M370.114,157.811C351.523,65.174,307.456,0,256,0c-51.447,0-95.514,65.174-114.114,157.811 c41.057,46.036,72.854,122.827,92.328,199.477C251.065,406.528,256,461.356,256,512c0-50.644,4.935-105.472,21.786-154.712 C297.269,280.638,329.057,203.847,370.114,157.811"/> <path style="fill:#AF6D2D;" d="M256.002,512.004c0-138.664-77.241-397.241-194.207-397.241 C-19.966,351.668,96.373,512.004,256.002,512.004"/> <path style="fill:#864D18;" d="M185.347,471.952c-1.121,0-2.26-0.221-3.363-0.671c-31.603-13.065-58.033-34.278-78.539-63.047 c-41.393-58.068-52.515-141.047-31.329-233.657c1.086-4.758,5.826-7.733,10.575-6.63c4.749,1.086,7.724,5.817,6.638,10.567 c-20.047,87.623-9.931,165.57,28.495,219.471c18.556,26.033,42.408,45.197,70.894,56.973c4.511,1.863,6.656,7.027,4.793,11.529 C192.1,469.895,188.816,471.952,185.347,471.952"/> <path style="fill:#AF6D2D;" d="M256.002,512.004c0-138.664,77.241-397.241,194.207-397.241 C531.97,351.668,415.631,512.004,256.002,512.004"/> <path style="fill:#B49377;" d="M184.403,141.249c-0.83,0-1.66-0.124-2.498-0.362c-4.67-1.377-7.353-6.285-5.976-10.964 c11.714-39.812,28.637-71.318,47.634-88.691c3.593-3.302,9.181-3.046,12.473,0.556c3.293,3.593,3.037,9.181-0.556,12.473 c-16.419,15.007-31.947,44.403-42.611,80.649C191.739,138.751,188.216,141.249,184.403,141.249"/> </g> </g>
</svg>